<svg xmlns="http://www.w3.org/2000/svg" xmlns:xlink="http://www.w3.org/1999/xlink" width="500" zoomAndPan="magnify" viewBox="0 0 375 374.999991" height="500" preserveAspectRatio="xMidYMid meet" version="1.0"><rect x="-37.5" width="450" fill="#ffffff" y="-37.499999" height="449.999989" fill-opacity="1"/><rect x="-37.5" width="450" fill="#ffffff" y="-37.499999" height="449.999989" fill-opacity="1"/><rect x="-37.5" width="450" fill="#ffffff" y="-37.499999" height="449.999989" fill-opacity="1"/><rect x="-37.5" width="450" fill="#1e293b" y="-37.499999" height="449.999989" fill-opacity="1"/><path fill="#ffffff" d="M 373.007812 174.777344 L 368.628906 162.429688 C 366.242188 155.65625 358.679688 150.078125 351.910156 150.078125 L 336.386719 150.078125 C 324.839844 117.8125 310.90625 78.777344 306.527344 69.613281 C 300.160156 55.273438 279.855469 48.902344 268.710938 45.714844 C 268.710938 45.714844 250 38.542969 187.5 38.542969 C 125 38.542969 106.6875 45.714844 106.6875 45.714844 C 93.550781 50.097656 75.238281 56.46875 68.074219 70.011719 C 64.492188 76.785156 50.160156 116.617188 38.613281 150.078125 L 23.488281 150.078125 C 16.71875 150.078125 9.15625 155.65625 6.765625 162.429688 L 2.386719 174.777344 C 0 181.546875 3.582031 187.125 10.351562 187.125 L 25.875 187.125 C 23.886719 192.703125 22.691406 195.886719 22.691406 195.886719 C 21.496094 197.878906 20.699219 207.042969 20.699219 209.832031 L 20.699219 322.558594 C 20.699219 329.730469 26.671875 335.707031 33.835938 335.707031 L 81.609375 335.707031 C 88.773438 335.707031 94.746094 329.730469 94.746094 322.558594 L 94.746094 298.660156 L 280.652344 298.660156 L 280.652344 322.558594 C 280.652344 329.730469 286.625 335.707031 293.789062 335.707031 L 341.957031 335.707031 C 349.125 335.707031 355.09375 329.730469 355.09375 322.558594 L 355.09375 209.832031 C 355.09375 207.441406 354.300781 197.878906 353.105469 195.886719 C 353.105469 195.886719 351.910156 192.703125 349.921875 187.125 L 365.046875 187.125 C 371.417969 187.125 375 181.546875 373.007812 174.777344 Z M 94.746094 244.085938 L 78.820312 233.332031 C 49.363281 230.941406 45.78125 241.300781 39.410156 230.144531 L 39.410156 216.601562 C 39.410156 203.457031 46.972656 203.058594 55.335938 203.058594 C 63.296875 203.058594 79.21875 209.832031 89.96875 214.609375 C 101.511719 219.789062 109.871094 215.40625 114.25 232.535156 C 113.851562 240.503906 109.472656 244.085938 94.746094 244.085938 Z M 66.878906 155.257812 C 76.832031 114.628906 93.550781 86.34375 95.941406 79.574219 C 97.53125 74.792969 93.550781 66.03125 187.898438 66.03125 C 282.246094 66.03125 277.070312 78.777344 277.46875 79.175781 C 281.847656 88.335938 299.363281 118.210938 308.519531 155.257812 C 308.519531 155.257812 273.089844 160.039062 192.277344 160.039062 C 111.464844 160.039062 66.878906 155.257812 66.878906 155.257812 Z M 261.542969 232.535156 C 280.253906 209.433594 274.285156 219.789062 285.828125 214.609375 C 296.179688 209.832031 312.5 203.058594 320.460938 203.058594 C 328.820312 203.058594 336.386719 203.457031 336.386719 216.601562 L 336.386719 230.144531 C 330.414062 240.902344 325.238281 231.339844 295.382812 234.128906 L 280.652344 243.6875 C 265.921875 244.085938 256.371094 238.511719 261.542969 232.535156 Z M 261.542969 232.535156 " fill-opacity="1" fill-rule="nonzero"/></svg>